# xmcd
#
# Track frame offsets:
#	150
#	15117
#	26230
#	43385
#	52402
#	64077
#	78065
#	88132
#	99635
#	119427
#	135992
#	149300
#	169200
#	180945
#	193032
#	202860
#	216370
#	227832
#	238247
#	252137
#	272445
#	282777
#	293365
#	317100
#	333025
#
# Disc length: 4624 seconds
#
# Revision: 0
# Processed by: cddbd v1.4PL0 Copyright (c) Steve Scherf et al.
# Submitted via: dBpowerAMP V4.0
#
DISCID=64120e19
DTITLE=Various Artist - Blues and Soul Greats 3
DYEAR=1900
DGENRE=
TTITLE0=I Got My Mojo Working-Muddy Waters
TTITLE1=The Comeback-Memphis Slim
TTITLE2=Solitude-Billie Holliday
TTITLE3=The Dipsy Doodle-Ella Fitzgerald
TTITLE4=Whiskey 6 Wimmen-John Lee Hooker
TTITLE5=Evil Hearted Woman-Lightnin' Hopkins
TTITLE6=Sat it For Me-Howlin' Wolf
TTITLE7=Spike Driver's Blues-Mississippi John Hurt
TTITLE8=Medley-Leadbelly
TTITLE9=Sunnyland Slim-Pinetop Perkins
TTITLE10=You're Something Else-Jimmy Reed
TTITLE11=Good Morning Heartaches-Lighning Slim
TTITLE12=T'ain't Nobody's business if I Do-Billie Holliday
TTITLE13=Garbage Man-Muddy Waters
TTITLE14=44 Blues-Big Joe Williams
TTITLE15=Sassy Mae-Memphis Slim
TTITLE16=Big Road Blues-Canned Heat
TTITLE17=Lullaby of Birdland-Ella Fitzgerald
TTITLE18=Dusty Road-John Lee Hooker
TTITLE19=My Little Kewpie Doll-Lightnin' Hopkins
TTITLE20=I Didn't Mean to Hurt Your Feelings-Howlin' Wolf
TTITLE21=Chicken Blues-Mississippi John Hurt
TTITLE22=Little Rain-Jimmy Reed
TTITLE23=Things I Used to Do-Lightning Slim
TTITLE24=Screamin' and Cryin'
EXTD=
EXTT0=
EXTT1=
EXTT2=
EXTT3=
EXTT4=
EXTT5=
EXTT6=
EXTT7=
EXTT8=
EXTT9=
EXTT10=
EXTT11=
EXTT12=
EXTT13=
EXTT14=
EXTT15=
EXTT16=
EXTT17=
EXTT18=
EXTT19=
EXTT20=
EXTT21=
EXTT22=
EXTT23=
EXTT24=
PLAYORDER=
